<svg xmlns="http://www.w3.org/2000/svg" width="47" height="41.778" viewBox="0 0 47 41.778"><path d="M22.194,19.583A1.306,1.306,0,0,0,23.5,20.889h1.306a1.306,1.306,0,0,0,1.306-1.306V16.972h6.528v3.917h3.917V15.667a2.611,2.611,0,0,0-2.611-2.611H26.111V7.833a7.833,7.833,0,1,0-15.667,0v5.222H2.611A2.611,2.611,0,0,0,0,15.667V36.556a2.611,2.611,0,0,0,2.611,2.611H13.056V35.25H3.917V16.972h6.528v2.611a1.306,1.306,0,0,0,1.306,1.306h1.306a1.306,1.306,0,0,0,1.306-1.306V16.972h7.833Zm-7.833-6.528V7.833a3.917,3.917,0,0,1,7.833,0v5.222ZM44.389,23.5H18.278a2.611,2.611,0,0,0-2.611,2.611V39.167a2.611,2.611,0,0,0,2.611,2.611H44.389A2.611,2.611,0,0,0,47,39.167V26.111A2.611,2.611,0,0,0,44.389,23.5ZM35.25,27.417a3.917,3.917,0,0,1-7.833,0Zm7.833,10.444h-23.5V27.417h3.941A7.989,7.989,0,0,0,30.3,35.184a7.843,7.843,0,0,0,8.864-7.767h3.917Z"/></svg>