<svg xmlns="http://www.w3.org/2000/svg" width="41.5" height="36.889" viewBox="0 0 41.5 36.889"><path d="M38.042,9.222H33.858a6.258,6.258,0,0,0,.726-2.882A6.348,6.348,0,0,0,28.243,0c-3,0-4.936,1.538-7.424,4.923C18.332,1.537,16.393,0,13.4,0a6.348,6.348,0,0,0-6.34,6.34,6.258,6.258,0,0,0,.726,2.882H3.458A3.458,3.458,0,0,0,0,12.681v20.75a3.458,3.458,0,0,0,3.458,3.458H38.042A3.458,3.458,0,0,0,41.5,33.431V12.681A3.458,3.458,0,0,0,38.042,9.222Zm-9.8-5.764a2.882,2.882,0,1,1,0,5.764h-6.2C25.742,3.713,26.777,3.458,28.243,3.458ZM10.514,6.34A2.885,2.885,0,0,1,13.4,3.458c1.437,0,2.491.236,6.2,5.764H13.4A2.885,2.885,0,0,1,10.514,6.34ZM16,12.681l-3.726,3.726a1.153,1.153,0,0,0,0,1.63l.815.815a1.153,1.153,0,0,0,1.63,0L20.75,12.82l6.032,6.032a1.153,1.153,0,0,0,1.63,0l.815-.815a1.153,1.153,0,0,0,0-1.63L25.5,12.681H38.042V23.056H3.458V12.681ZM3.458,33.431V27.667H38.042v5.764Z"/></svg>